<svg width="70" height="80" viewBox="0 0 70 80" fill="none" xmlns="http://www.w3.org/2000/svg">
<mask id="mask0_42_33" style="mask-type:alpha" maskUnits="userSpaceOnUse" x="0" y="0" width="32" height="39">
<path d="M0 0.198242H31.0164V38.7023H0V0.198242Z" fill="white"/>
</mask>
<g mask="url(#mask0_42_33)">
<path fill-rule="evenodd" clip-rule="evenodd" d="M31.0164 0.198242H20.6773L0 20.4252V28.6127H20.6773V38.7262H31.0164V20.4252H10.3387L31.0164 0.198242Z" fill="white"/>
</g>
<path fill-rule="evenodd" clip-rule="evenodd" d="M34.6667 9.90665L44.7018 0H34.6667V9.90665Z" fill="white"/>
<path fill-rule="evenodd" clip-rule="evenodd" d="M55.6491 10.2067V0H45.6142V10.2067L35.5789 20.4134V30.6206H45.6142V20.4134L55.6491 10.2067Z" fill="white"/>
<path fill-rule="evenodd" clip-rule="evenodd" d="M55.6494 20.7139L45.6143 30.6205H55.6494V20.7139Z" fill="white"/>
<path d="M35.9189 38.7139L35.9407 43.8572L35.9625 49.0005" stroke="white"/>
<path d="M41.5508 46.0547H41.7852C42.2826 46.0547 42.6263 45.9935 42.8164 45.8711C43.0091 45.7461 43.1055 45.5352 43.1055 45.2383C43.1055 44.9857 43.026 44.8073 42.8672 44.7031C42.7083 44.5964 42.4089 44.543 41.9688 44.543H41.7539L41.5508 46.0547ZM42.0547 42.2148L41.8711 43.6016H42C42.4453 43.6016 42.7526 43.5443 42.9219 43.4297C43.0911 43.3151 43.1758 43.1211 43.1758 42.8477C43.1758 42.6133 43.1068 42.4492 42.9688 42.3555C42.8333 42.2617 42.5638 42.2148 42.1602 42.2148H42.0547ZM40.2461 47L41 41.2812H42.1836C42.681 41.2812 43.043 41.3073 43.2695 41.3594C43.4961 41.4115 43.6888 41.5 43.8477 41.625C44.0091 41.7526 44.1302 41.9023 44.2109 42.0742C44.2943 42.2461 44.3359 42.4375 44.3359 42.6484C44.3359 43.0182 44.2279 43.3255 44.0117 43.5703C43.7956 43.8151 43.5013 43.9635 43.1289 44.0156C43.4935 44.0703 43.7786 44.2096 43.9844 44.4336C44.1927 44.6549 44.2969 44.9349 44.2969 45.2734C44.2969 45.5703 44.2344 45.8385 44.1094 46.0781C43.9844 46.3177 43.8034 46.5156 43.5664 46.6719C43.3867 46.7917 43.1641 46.8763 42.8984 46.9258C42.6328 46.9753 42.1888 47 41.5664 47H40.2461ZM44.8945 47L45.6484 41.2812H49.0469L48.9219 42.2891H46.7031L46.5352 43.5742H48.7461L48.6172 44.5586H46.4023L46.2148 45.9922H48.4336L48.2969 47H44.8945ZM51.0898 43.7539H51.2656C51.7188 43.7539 52.026 43.6927 52.1875 43.5703C52.3516 43.4453 52.4336 43.2318 52.4336 42.9297C52.4336 42.6719 52.3646 42.4909 52.2266 42.3867C52.0911 42.2826 51.8242 42.2305 51.4258 42.2305H51.2891L51.0898 43.7539ZM50.668 47H49.4648L50.2188 41.2812H51.4102C51.9076 41.2812 52.2656 41.3073 52.4844 41.3594C52.7057 41.4115 52.8997 41.5 53.0664 41.625C53.2513 41.7604 53.3919 41.9271 53.4883 42.125C53.5846 42.3203 53.6328 42.5378 53.6328 42.7773C53.6328 43.2148 53.5091 43.5768 53.2617 43.8633C53.0169 44.1471 52.6641 44.3398 52.2031 44.4414L53.5 47H52.1875L51.0117 44.375L50.668 47ZM54.1289 47L54.8828 41.2812H56.082L55.457 45.9844H57.4414L57.3086 47H54.1289ZM58.0547 47L58.8047 41.2812H60.0039L59.2539 47H58.0547ZM60.5195 47L61.2734 41.2812H62.5195L64.2891 44.2305C64.4792 44.5534 64.6146 44.7969 64.6953 44.9609C64.776 45.125 64.8411 45.2799 64.8906 45.4258C64.901 45.1549 64.9141 44.9167 64.9297 44.7109C64.9453 44.5026 64.9609 44.3385 64.9766 44.2188L65.3711 41.2812H66.4961L65.7383 47H64.5781L62.6094 43.6719C62.487 43.4688 62.388 43.2904 62.3125 43.1367C62.237 42.9831 62.1732 42.8359 62.1211 42.6953V42.8789C62.1211 43.0742 62.1159 43.263 62.1055 43.4453C62.0951 43.6276 62.0794 43.7995 62.0586 43.9609L61.6328 47H60.5195Z" fill="white"/>
</svg>
